<?xml version="1.0" encoding="UTF-8" standalone="no"?>
<svg
   id="emoji"
   viewBox="0 0 72 72"
   version="1.1"
   sodipodi:docname="cherry-blossom_openmoji_1F338.svg"
   inkscape:version="1.4 (86a8ad7, 2024-10-11)"
   xmlns:inkscape="http://www.inkscape.org/namespaces/inkscape"
   xmlns:sodipodi="http://sodipodi.sourceforge.net/DTD/sodipodi-0.dtd"
   xmlns="http://www.w3.org/2000/svg"
   xmlns:svg="http://www.w3.org/2000/svg">
  <defs
     id="defs10" />
  <sodipodi:namedview
     id="namedview10"
     pagecolor="#ffffff"
     bordercolor="#000000"
     borderopacity="0.25"
     inkscape:showpageshadow="2"
     inkscape:pageopacity="0.0"
     inkscape:pagecheckerboard="0"
     inkscape:deskcolor="#d1d1d1"
     inkscape:zoom="15.833333"
     inkscape:cx="36"
     inkscape:cy="36"
     inkscape:window-width="2688"
     inkscape:window-height="1402"
     inkscape:window-x="1249"
     inkscape:window-y="3012"
     inkscape:window-maximized="1"
     inkscape:current-layer="line" />
  <g
     id="color">
    <path
       fill="#FFA7C0"
       stroke="none"
       d="M43.7106,31.8594c3.34,1,7.98,4,8.83,10.66l-2.19,0.1801h-0.0099l0.18,2.1899 c-11.57,0.3701-12.55-9.35-12.55-9.35h-0.69c0,0-0.88,9.7201-12.45,9.35l0.18-2.1899h-0.01l-2.19-0.1801 c0.85-6.66,5.49-9.66,8.83-10.66c-3.51,0.24-9.12-0.9099-12.2-7.1599l2.02-0.88l-0.88-2.02c7.02-2.67,10.93-0.15,13.2,2.5499 c-1.77-3.3099-2.95-8.3099,2.2-13.98l1.56,1.5601h0.01l1.55-1.5601c5.16,5.67,3.98,10.67,2.21,13.98h0.16 c2.27-2.7,6.28-5.22,13.3-2.5499l-0.88,2.02l2.02,0.88C52.8306,30.9495,47.2106,32.0994,43.7106,31.8594z"
       id="path2" />
    <path
       fill="#FCEA2B"
       stroke="none"
       d="M37.9623,26.0189c0,0,0.9758-0.0021,1.9566,0.2527l-1.0721,6.9321 c-1.8894-0.0469-4.3796-1.7891-4.3796-3.6898C34.4672,27.5837,36.032,26.0189,37.9623,26.0189"
       id="path3" />
  </g>
  <g
     id="hair" />
  <g
     id="skin" />
  <g
     id="skin-shadow" />
  <g
     id="line">
    <path
       fill="none"
       stroke="#000000"
       stroke-linecap="round"
       stroke-linejoin="round"
       stroke-miterlimit="10"
       stroke-width="2"
       d="M34.0696,24.6209c-1.7699-3.313-2.9507-8.3121,2.2021-13.9802l1.5576,1.5576h0.0025"
       id="path5" />
    <path
       fill="none"
       stroke="#000000"
       stroke-linecap="round"
       stroke-linejoin="round"
       stroke-miterlimit="10"
       stroke-width="2"
       d="M37.8319,12.1983h0.0025l1.5576-1.5576c5.1528,5.6681,3.972,10.6672,2.2021,13.9802h0.1646 c2.2731-2.6991,6.2758-5.2194,13.2972-2.5536l-0.8789,2.0199l0.0009,0.0024l2.0199,0.8789 c-3.0804,6.2486-8.6944,7.3987-12.2002,7.1636"
       id="path6" />
    <path
       fill="none"
       stroke="#000000"
       stroke-linecap="round"
       stroke-linejoin="round"
       stroke-miterlimit="10"
       stroke-width="2"
       d="M34.0696,24.6209c-2.2731-2.6991-6.1797-5.2191-13.2011-2.5534l0.8789,2.0199l-0.0009,0.0024l-2.0199,0.8789 c3.0804,6.2486,8.6944,7.3987,12.2002,7.1636"
       id="path7" />
    <path
       fill="none"
       stroke="#000000"
       stroke-linecap="round"
       stroke-linejoin="round"
       stroke-miterlimit="10"
       stroke-width="2"
       d="M31.927,32.1323c-3.3354,1.0006-7.979,4.0001-8.8292,10.6579l2.1959,0.1748l0.0017,0.0019l-0.1748,2.1959 c11.572,0.3686,12.4442-9.3577,12.4442-9.3577h0.699c0,0,0.9724,9.7262,12.5444,9.3577l-0.1748-2.1959l0.0017-0.0019 l2.1959-0.1748c-0.8502-6.6578-5.4937-9.6573-8.8292-10.6579"
       id="path8" />
    <path
       fill="none"
       stroke="#000000"
       stroke-linecap="round"
       stroke-linejoin="round"
       stroke-miterlimit="10"
       stroke-width="2"
       d="M37.8738,33.0079c-1.8894-0.0469-3.4066-1.5933-3.4066-3.494c0-1.9303,1.5648-3.495,3.495-3.495 c0.3439,0,0.6763,0.0497,0.9902,0.1423"
       id="path9" />
    <line
       x1="38.2634"
       x2="40.7452"
       y1="29.5134"
       y2="28.4832"
       fill="none"
       stroke="#000000"
       stroke-linecap="round"
       stroke-linejoin="round"
       stroke-miterlimit="10"
       stroke-width="2"
       id="line9" />
    <ellipse
       cx="43.9373"
       cy="27.0734"
       rx="1.398"
       ry="1.398"
       transform="matrix(0.9127 -0.4087 0.4087 0.9127 -7.2278 20.3218)"
       fill="#000000"
       stroke="none"
       id="ellipse9" />
    <line
       x1="38.2634"
       x2="40.7196"
       y1="29.5137"
       y2="31.9736"
       fill="none"
       stroke="#000000"
       stroke-linecap="round"
       stroke-linejoin="round"
       stroke-miterlimit="10"
       stroke-width="2"
       id="line10" />
  </g>
</svg>
