<?xml version="1.0" encoding="UTF-8"?>
<svg id="emoji" inkscape:version="1.4 (86a8ad7, 2024-10-11)" sodipodi:docname="cherry-blossom_openmoji_1F338-mod4.svg" version="1.1" viewBox="0 0 72 72" xmlns="http://www.w3.org/2000/svg" xmlns:inkscape="http://www.inkscape.org/namespaces/inkscape" xmlns:sodipodi="http://sodipodi.sourceforge.net/DTD/sodipodi-0.dtd">
 <sodipodi:namedview bordercolor="#000000" borderopacity="0.25" inkscape:current-layer="g1" inkscape:cx="32.842106" inkscape:cy="30.91579" inkscape:deskcolor="#d1d1d1" inkscape:pagecheckerboard="0" inkscape:pageopacity="0.0" inkscape:showpageshadow="2" inkscape:window-height="1494" inkscape:window-maximized="0" inkscape:window-width="1984" inkscape:window-x="1253" inkscape:window-y="74" inkscape:zoom="15.833333" pagecolor="#ffffff" showgrid="true">
  <inkscape:grid color="#0099e5" opacity=".14902" empcolor="#0099e5" empopacity="0.30196078" empspacing="5" enabled="true" originx="0" originy="0" spacingx="1" spacingy="1" units="px" visible="true"/>
 </sodipodi:namedview>
 <g transform="matrix(1.3703 0 0 1.3703 -15.926 -4.6407)">
  <g id="color">
   <path d="m43.711 31.859c3.34 1 7.98 4 8.83 10.66l-2.19 0.1801h-0.0099l0.18 2.1899c-11.57 0.3701-12.55-9.35-12.55-9.35h-0.69s-0.88 9.7201-12.45 9.35l0.18-2.1899h-0.01l-2.19-0.1801c0.85-6.66 5.49-9.66 8.83-10.66-3.51 0.24-9.12-0.9099-12.2-7.1599l2.02-0.88-0.88-2.02c7.02-2.67 10.93-0.15 13.2 2.5499-1.77-3.3099-2.95-8.3099 2.2-13.98l1.56 1.5601h0.01l1.55-1.5601c5.16 5.67 3.98 10.67 2.21 13.98h0.16c2.27-2.7 6.28-5.22 13.3-2.5499l-0.88 2.02 2.02 0.88c-3.0801 6.25-8.7001 7.3999-12.2 7.1599z" fill="#ffa7c0"/>
   <path d="m37.64 26.019s0.9758-0.0021 1.9566 0.2527l-1.0721 6.9321c-1.8894-0.0469-4.3796-1.7891-4.3796-3.6898 0-1.9302 1.5648-3.495 3.4951-3.495" fill="#fcea2b"/>
  </g>
  <g id="line" stroke-width="1.4596">
   <g fill="none" stroke="#000" stroke-linecap="round" stroke-linejoin="round" stroke-miterlimit="10">
    <g stroke-width="1.4596">
     <path d="m34.07 24.621c-1.7699-3.313-2.9507-8.3121 2.2021-13.98l1.5576 1.5576h0.0025"/>
     <path d="m37.832 12.198h0.0025l1.5576-1.5576c5.1528 5.6681 3.972 10.667 2.2021 13.98h0.1646c2.2731-2.6991 6.2758-5.2194 13.297-2.5536l-0.8789 2.0199 9e-4 0.0024 2.0199 0.8789c-3.0804 6.2486-8.6944 7.3987-12.2 7.1636"/>
     <path d="m34.07 24.621c-2.2731-2.6991-6.1797-5.2191-13.201-2.5534l0.8789 2.0199-9e-4 0.0024-2.0199 0.8789c3.0804 6.2486 8.6944 7.3987 12.2 7.1636"/>
     <path d="m31.927 32.132c-3.3354 1.0006-7.979 4.0001-8.8292 10.658l2.1959 0.1748 0.0017 0.0019-0.1748 2.1959c11.572 0.3686 12.444-9.3577 12.444-9.3577h0.699s0.9724 9.7262 12.544 9.3577l-0.1748-2.1959 0.0017-0.0019 2.1959-0.1748c-0.8502-6.6578-5.4937-9.6573-8.8292-10.658"/>
    </g>
    <path d="m37.874 33.008c-1.8894-0.0469-3.4066-1.5933-3.4066-3.494 0-1.9303 1.5648-3.495 3.495-3.495 0.3439 0 0.6763 0.0497 0.9902 0.1423" stroke-width="1.4596"/>
    <line x1="38.263" x2="40.745" y1="29.513" y2="28.483" stroke-width="1.4596"/>
   </g>
   <circle transform="rotate(-24.122)" cx="29.037" cy="42.667" r=".87575" stroke-width=".9143"/>
   <line x1="38.263" x2="40.72" y1="29.514" y2="31.974" fill="none" stroke="#000" stroke-linecap="round" stroke-linejoin="round" stroke-miterlimit="10" stroke-width="1.4596"/>
  </g>
 </g>
</svg>
