<?xml version="1.0" encoding="UTF-8"?>
<svg id="emoji" inkscape:version="1.4 (86a8ad7, 2024-10-11)" sodipodi:docname="github_openmoji_E045_mod.svg" version="1.1" viewBox="0 0 72 72" xmlns="http://www.w3.org/2000/svg" xmlns:inkscape="http://www.inkscape.org/namespaces/inkscape" xmlns:sodipodi="http://sodipodi.sourceforge.net/DTD/sodipodi-0.dtd">
 <sodipodi:namedview bordercolor="#000000" borderopacity="0.25" inkscape:current-layer="emoji" inkscape:cx="35.954023" inkscape:cy="36" inkscape:deskcolor="#d1d1d1" inkscape:pagecheckerboard="0" inkscape:pageopacity="0.0" inkscape:showpageshadow="2" inkscape:window-height="1001" inkscape:window-maximized="1" inkscape:window-width="1920" inkscape:window-x="2379" inkscape:window-y="567" inkscape:zoom="10.875" pagecolor="#ffffff"/>
 <g id="color">
  <path d="m27.114 62.986s9.1707 2.9222 17.927-0.0418" display="none" fill="none" stroke="#fff" stroke-linecap="round" stroke-linejoin="round" stroke-width="2"/>
  <circle cx="35.9" cy="35.898" r="27.226" display="none" fill="#fff"/>
  <path d="m29.044 61.611c0-0.9275-0.0347-3.9798-0.0347-7.7645 0-2.6461 0.874-4.3727 1.863-5.2521-6.2277-0.7217-12.779-3.1539-12.779-14.035 0-3.0978 1.0959-5.6316 2.8866-7.6149-0.286-0.719-1.2536-3.6056 0.278-7.5133 0 0 2.3548-0.7644 7.7164 2.908 2.2372-0.6281 4.6373-0.9462 7.0268-0.9515 2.3842 0.0054 4.7843 0.3234 7.0268 0.9515 5.3563-3.6725 7.7111-2.908 7.7111-2.908 1.5315 3.9077 0.5693 6.7943 0.278 7.5133 1.7961 1.9832 2.8813 4.5144 2.8813 7.6149 0 10.905-6.5591 13.308-12.816 14.008 1.013 0.882 1.9084 2.6113 1.9084 5.2628 0 3.7927-0.0347 6.8504-0.0347 7.7806 0 0.7618 0.5052 1.6411 1.9298 1.3685 11.146-3.758 19.178-14.396 19.178-26.931 0-15.679-12.568-28.388-28.067-28.388s-28.059 12.706-28.059 28.388c0 12.541 8.0398 23.181 19.202 26.934 1.3952 0.2619 1.9057-0.6147 1.9057-1.3712z" fill="#d0cfce"/>
 </g>
 <g id="line" fill="none" stroke="#000" stroke-linecap="round" stroke-linejoin="round" stroke-width="2">
  <path d="m29.044,61.6111c0-.9275-.0347-3.9798-.0347-7.7645,0-2.6461.874-4.3727,1.863-5.2521-6.2277-.7217-12.7788-3.1539-12.7788-14.035,0-3.0978,1.0959-5.6316,2.8866-7.6149-.286-.719-1.2536-3.6056.278-7.5133,0,0,2.3548-.7644,7.7164,2.908,2.2372-.6281,4.6373-.9462,7.0268-.9515,2.3842.0054,4.7843.3234,7.0268.9515,5.3563-3.6725,7.7111-2.908,7.7111-2.908,1.5315,3.9077.5693,6.7943.278,7.5133,1.7961,1.9832,2.8813,4.5144,2.8813,7.6149,0,10.9051-6.5591,13.308-12.8162,14.0083,1.013.882,1.9084,2.6113,1.9084,5.2628,0,3.7927-.0347,6.8504-.0347,7.7806,0,.7618.5052,1.6411,1.9298,1.3685,11.1457-3.758,19.1775-14.3958,19.1775-26.9313,0-15.6788-12.5676-28.388-28.0673-28.388S7.9367,20.3668,7.9367,36.0483c0,12.5409,8.0398,23.1814,19.2015,26.934,1.3952.2619,1.9057-.6147,1.9057-1.3712h0Z"/>
  <path d="m16.289 48.089c2.5686 0.7805 3.5816 1.6358 4.7897 3.6618 1.2054 2.026 2.6194 4.2872 7.9329 2.9989"/>
 </g>
</svg>
